<svg width="50" height="50" viewBox="0 0 50 50" fill="none" xmlns="http://www.w3.org/2000/svg">
<rect width="50" height="50" rx="5" fill="#BCCFFF"/>
<path d="M16.8 34.25C15.35 34.25 14.1333 34.0333 13.15 33.6C12.1667 33.15 11.4083 32.575 10.875 31.875C10.3583 31.1583 10.0833 30.4 10.05 29.6C10.05 29.4667 10.1 29.35 10.2 29.25C10.3167 29.1333 10.45 29.075 10.6 29.075H11.875C12.075 29.075 12.225 29.125 12.325 29.225C12.425 29.325 12.4917 29.4417 12.525 29.575C12.6083 29.975 12.8083 30.375 13.125 30.775C13.4583 31.1583 13.9167 31.4833 14.5 31.75C15.1 32 15.8667 32.125 16.8 32.125C18.2333 32.125 19.2833 31.875 19.95 31.375C20.6333 30.8583 20.975 30.175 20.975 29.325C20.975 28.7417 20.7917 28.275 20.425 27.925C20.075 27.5583 19.5333 27.2333 18.8 26.95C18.0667 26.6667 17.1167 26.3583 15.95 26.025C14.7333 25.675 13.725 25.2917 12.925 24.875C12.125 24.4583 11.525 23.9417 11.125 23.325C10.7417 22.7083 10.55 21.925 10.55 20.975C10.55 20.075 10.7917 19.275 11.275 18.575C11.7583 17.8583 12.45 17.2917 13.35 16.875C14.2667 16.4583 15.375 16.25 16.675 16.25C17.7083 16.25 18.6083 16.3917 19.375 16.675C20.1583 16.9417 20.8083 17.3083 21.325 17.775C21.8417 18.225 22.2333 18.7167 22.5 19.25C22.7667 19.7667 22.9083 20.275 22.925 20.775C22.925 20.8917 22.8833 21.0083 22.8 21.125C22.7167 21.225 22.5833 21.275 22.4 21.275H21.075C20.9583 21.275 20.8333 21.2417 20.7 21.175C20.5833 21.1083 20.4917 20.9833 20.425 20.8C20.325 20.1167 19.9417 19.5417 19.275 19.075C18.6083 18.6083 17.7417 18.375 16.675 18.375C15.5917 18.375 14.7083 18.5833 14.025 19C13.3583 19.4167 13.025 20.0667 13.025 20.95C13.025 21.5167 13.1833 21.9917 13.5 22.375C13.8167 22.7417 14.3167 23.0667 15 23.35C15.6833 23.6333 16.575 23.9333 17.675 24.25C19.0083 24.6167 20.1 25.0083 20.95 25.425C21.8 25.825 22.425 26.3333 22.825 26.95C23.2417 27.55 23.45 28.325 23.45 29.275C23.45 30.325 23.175 31.225 22.625 31.975C22.075 32.7083 21.3 33.275 20.3 33.675C19.3167 34.0583 18.15 34.25 16.8 34.25ZM34.3268 34.25C33.3268 34.25 32.4934 34.075 31.8268 33.725C31.1601 33.3583 30.6268 32.9083 30.2268 32.375V33.425C30.2268 33.5917 30.1684 33.7333 30.0518 33.85C29.9518 33.95 29.8184 34 29.6518 34H28.5018C28.3351 34 28.1934 33.95 28.0768 33.85C27.9768 33.7333 27.9268 33.5917 27.9268 33.425V16.825C27.9268 16.6583 27.9768 16.525 28.0768 16.425C28.1934 16.3083 28.3351 16.25 28.5018 16.25H29.7018C29.8851 16.25 30.0268 16.3083 30.1268 16.425C30.2268 16.525 30.2768 16.6583 30.2768 16.825V22.575C30.6934 22.0583 31.2268 21.625 31.8768 21.275C32.5434 20.925 33.3601 20.75 34.3268 20.75C35.2601 20.75 36.0518 20.9167 36.7018 21.25C37.3684 21.5667 37.9101 22.0083 38.3268 22.575C38.7601 23.1417 39.0851 23.7833 39.3018 24.5C39.5184 25.2167 39.6351 25.9667 39.6518 26.75C39.6684 27.0167 39.6768 27.2667 39.6768 27.5C39.6768 27.7333 39.6684 27.9833 39.6518 28.25C39.6351 29.05 39.5184 29.8083 39.3018 30.525C39.0851 31.2417 38.7601 31.8833 38.3268 32.45C37.9101 33 37.3684 33.4417 36.7018 33.775C36.0518 34.0917 35.2601 34.25 34.3268 34.25ZM33.8018 32.225C34.6684 32.225 35.3434 32.0417 35.8268 31.675C36.3268 31.2917 36.6851 30.8 36.9018 30.2C37.1184 29.5833 37.2434 28.925 37.2768 28.225C37.2934 27.7417 37.2934 27.2583 37.2768 26.775C37.2434 26.075 37.1184 25.425 36.9018 24.825C36.6851 24.2083 36.3268 23.7167 35.8268 23.35C35.3434 22.9667 34.6684 22.775 33.8018 22.775C33.0184 22.775 32.3684 22.9583 31.8518 23.325C31.3351 23.6917 30.9434 24.1583 30.6768 24.725C30.4268 25.2917 30.2934 25.8667 30.2768 26.45C30.2601 26.7167 30.2518 27.0417 30.2518 27.425C30.2518 27.7917 30.2601 28.1083 30.2768 28.375C30.3101 28.9917 30.4434 29.6 30.6768 30.2C30.9268 30.7833 31.3018 31.2667 31.8018 31.65C32.3184 32.0333 32.9851 32.225 33.8018 32.225Z" fill="black"/>
</svg>
